<svg xmlns="http://www.w3.org/2000/svg" viewBox="0 0 900 600" role="img" aria-labelledby="title desc">
  <title id="title">Sample football specification diagram</title>
  <desc id="desc">A simple football illustration with callout rings for demo content.</desc>
  <rect width="900" height="600" fill="#f5efe4"/>
  <circle cx="450" cy="300" r="170" fill="#fcfaf5" stroke="#243b53" stroke-width="10"/>
  <circle cx="450" cy="300" r="108" fill="none" stroke="#a53f2b" stroke-width="8" stroke-dasharray="16 10"/>
  <path d="M450 130 L520 200 L500 290 L400 290 L380 200 Z" fill="#243b53"/>
  <path d="M310 240 L380 200 L400 290 L325 345 L255 305 Z" fill="#243b53"/>
  <path d="M590 240 L645 305 L575 345 L500 290 L520 200 Z" fill="#243b53"/>
  <path d="M325 345 L400 290 L450 360 L420 450 L340 425 Z" fill="#243b53"/>
  <path d="M500 290 L575 345 L560 425 L480 450 L450 360 Z" fill="#243b53"/>
  <line x1="640" y1="170" x2="545" y2="235" stroke="#a53f2b" stroke-width="6"/>
  <line x1="250" y1="430" x2="360" y2="385" stroke="#a53f2b" stroke-width="6"/>
  <text x="655" y="160" font-size="30" fill="#6e2518" font-family="Georgia, serif">Outer material</text>
  <text x="70" y="455" font-size="30" fill="#6e2518" font-family="Georgia, serif">Pressure check zone</text>
</svg>
